<?xml version="1.0" encoding="UTF-8"?>
<svg xmlns="http://www.w3.org/2000/svg" width="13pt" height="13pt" viewBox="0 0 13 13" version="1.1">
<g id="surface1">
<path style=" stroke:none;fill-rule:nonzero;fill:rgb(68.627451%,69.411765%,70.196078%);fill-opacity:1;" d="M 6.230469 0 C 5.480469 0 4.875 0.605469 4.875 1.355469 L 4.875 2.167969 L 2.707031 2.167969 C 2.109375 2.167969 1.625 2.652344 1.625 3.25 L 1.625 4.875 C 1.625 5.171875 1.867188 5.417969 2.167969 5.417969 L 2.359375 5.417969 C 3.066406 5.417969 3.714844 5.925781 3.785156 6.632812 C 3.867188 7.441406 3.230469 8.125 2.4375 8.125 L 2.167969 8.125 C 1.867188 8.125 1.625 8.367188 1.625 8.667969 L 1.625 10.292969 C 1.625 10.890625 2.109375 11.375 2.707031 11.375 L 4.332031 11.375 C 4.632812 11.375 4.875 11.132812 4.875 10.832031 L 4.875 10.640625 C 4.875 9.933594 5.386719 9.285156 6.089844 9.21875 C 6.898438 9.132812 7.582031 9.769531 7.582031 10.5625 L 7.582031 10.832031 C 7.582031 11.132812 7.828125 11.375 8.125 11.375 L 9.75 11.375 C 10.347656 11.375 10.832031 10.890625 10.832031 10.292969 L 10.832031 8.125 L 11.644531 8.125 C 12.394531 8.125 13 7.519531 13 6.769531 C 13 6.023438 12.394531 5.417969 11.644531 5.417969 L 10.832031 5.417969 L 10.832031 3.25 C 10.832031 2.652344 10.347656 2.167969 9.75 2.167969 L 7.582031 2.167969 L 7.582031 1.355469 C 7.582031 0.605469 6.976562 0 6.230469 0 Z M 6.230469 0 "/>
</g>
</svg>
