<?xml version="1.0" encoding="UTF-8"?>
<svg xmlns="http://www.w3.org/2000/svg" width="40pt" height="40pt" viewBox="0 0 40 40" version="1.1">
<defs>
<linearGradient id="linear0" gradientUnits="userSpaceOnUse" x1="116.90625" y1="61.8125" x2="116.90625" y2="154.07438" gradientTransform="matrix(0.251163,0,0,0.251163,-1.6,-1.6)">
<stop offset="0" style="stop-color:rgb(25.098039%,57.647059%,44.313725%);stop-opacity:1;"/>
<stop offset="1" style="stop-color:rgb(100%,65.098039%,30.980392%);stop-opacity:1;"/>
</linearGradient>
<linearGradient id="linear1" gradientUnits="userSpaceOnUse" x1="86" y1="17.91756" x2="86" y2="155.02575" gradientTransform="matrix(0.251163,0,0,0.251163,-1.6,-1.6)">
<stop offset="0" style="stop-color:rgb(11.764706%,27.058824%,20.784314%);stop-opacity:1;"/>
<stop offset="1" style="stop-color:rgb(87.058824%,43.137255%,0%);stop-opacity:1;"/>
</linearGradient>
</defs>
<g id="surface860437">
<path style=" stroke:none;fill-rule:nonzero;fill:url(#linear0);" d="M 30.445312 20 C 30.875 19.433594 31.136719 18.738281 31.136719 17.976562 C 31.136719 16.109375 29.625 14.601562 27.761719 14.601562 C 25.898438 14.601562 24.386719 16.109375 24.386719 17.976562 C 24.386719 18.738281 24.652344 19.433594 25.078125 20 L 20 20 L 20 25.398438 C 20.558594 24.976562 21.261719 24.726562 22.023438 24.726562 C 23.886719 24.726562 25.398438 26.238281 25.398438 28.101562 C 25.398438 29.964844 23.886719 31.476562 22.023438 31.476562 C 21.261719 31.476562 20.558594 31.226562 20 30.800781 L 20 35.523438 L 32.46875 35.523438 C 34.15625 35.523438 35.523438 34.15625 35.523438 32.46875 L 35.523438 20 Z M 30.445312 20 "/>
<path style=" stroke:none;fill-rule:nonzero;fill:url(#linear1);" d="M 32.824219 3.800781 L 7.175781 3.800781 C 5.3125 3.800781 3.800781 5.3125 3.800781 7.175781 L 3.800781 32.824219 C 3.800781 34.6875 5.3125 36.199219 7.175781 36.199219 L 32.824219 36.199219 C 34.6875 36.199219 36.199219 34.6875 36.199219 32.824219 L 36.199219 7.175781 C 36.199219 5.3125 34.6875 3.800781 32.824219 3.800781 Z M 5.148438 7.175781 C 5.148438 6.058594 6.058594 5.148438 7.175781 5.148438 L 19.324219 5.148438 L 19.324219 8.425781 C 18.894531 8.269531 18.4375 8.1875 17.976562 8.1875 C 16.757812 8.1875 15.617188 8.726562 14.84375 9.667969 C 14.070312 10.609375 13.765625 11.847656 14.007812 13.058594 C 14.308594 14.589844 15.546875 15.847656 17.082031 16.1875 C 17.847656 16.359375 18.613281 16.308594 19.324219 16.050781 L 19.324219 19.324219 L 13.566406 19.324219 L 14.382812 20.40625 C 14.746094 20.886719 14.9375 21.445312 14.9375 22.023438 C 14.9375 22.835938 14.578125 23.597656 13.949219 24.113281 C 13.3125 24.636719 12.503906 24.832031 11.675781 24.667969 C 10.664062 24.46875 9.832031 23.648438 9.605469 22.625 C 9.429688 21.839844 9.601562 21.054688 10.089844 20.40625 L 10.910156 19.324219 L 5.148438 19.324219 Z M 19.324219 34.851562 L 7.175781 34.851562 C 6.058594 34.851562 5.148438 33.941406 5.148438 32.824219 L 5.148438 20.675781 L 8.421875 20.675781 C 8.167969 21.382812 8.117188 22.152344 8.285156 22.917969 C 8.628906 24.453125 9.882812 25.691406 11.414062 25.992188 C 11.6875 26.046875 11.960938 26.074219 12.230469 26.074219 C 13.167969 26.074219 14.074219 25.757812 14.804688 25.15625 C 15.746094 24.382812 16.289062 23.242188 16.289062 22.023438 C 16.289062 21.5625 16.207031 21.105469 16.050781 20.675781 L 19.324219 20.675781 L 19.324219 26.433594 L 20.40625 25.617188 C 21.054688 25.128906 21.839844 24.957031 22.625 25.128906 C 23.648438 25.355469 24.46875 26.1875 24.667969 27.203125 C 24.832031 28.03125 24.636719 28.835938 24.113281 29.472656 C 23.230469 30.550781 21.558594 30.777344 20.40625 29.910156 L 19.324219 29.089844 Z M 34.851562 32.824219 C 34.851562 33.941406 33.941406 34.851562 32.824219 34.851562 L 20.675781 34.851562 L 20.675781 31.574219 C 21.105469 31.730469 21.5625 31.8125 22.023438 31.8125 C 23.242188 31.8125 24.382812 31.273438 25.15625 30.332031 C 25.929688 29.390625 26.234375 28.152344 25.992188 26.941406 C 25.691406 25.410156 24.453125 24.152344 22.917969 23.8125 C 22.152344 23.640625 21.386719 23.691406 20.675781 23.949219 L 20.675781 20.675781 L 26.433594 20.675781 L 25.617188 19.59375 C 25.128906 18.945312 24.957031 18.160156 25.128906 17.375 C 25.355469 16.351562 26.1875 15.53125 27.203125 15.332031 C 28.03125 15.164062 28.835938 15.363281 29.472656 15.886719 C 30.101562 16.402344 30.460938 17.164062 30.460938 17.976562 C 30.460938 18.554688 30.269531 19.113281 29.910156 19.59375 L 29.089844 20.675781 L 34.851562 20.675781 Z M 31.574219 19.324219 C 31.730469 18.894531 31.8125 18.4375 31.8125 17.976562 C 31.8125 16.757812 31.273438 15.617188 30.332031 14.84375 C 29.390625 14.070312 28.15625 13.765625 26.941406 14.007812 C 25.410156 14.308594 24.152344 15.546875 23.8125 17.082031 C 23.640625 17.847656 23.691406 18.613281 23.949219 19.324219 L 20.675781 19.324219 L 20.675781 13.566406 L 19.59375 14.382812 C 18.945312 14.871094 18.160156 15.042969 17.375 14.871094 C 16.351562 14.644531 15.53125 13.8125 15.332031 12.796875 C 15.167969 11.96875 15.363281 11.164062 15.886719 10.527344 C 16.769531 9.449219 18.441406 9.21875 19.59375 10.089844 L 20.675781 10.910156 L 20.675781 5.148438 L 32.824219 5.148438 C 33.941406 5.148438 34.851562 6.058594 34.851562 7.175781 L 34.851562 19.324219 Z M 31.574219 19.324219 "/>
<path style=" stroke:none;fill-rule:nonzero;fill:rgb(9.019608%,68.235294%,57.254902%);fill-opacity:1;" d="M 7.097656 11.355469 C 7.167969 10.769531 7.070312 10.273438 6.808594 9.875 C 6.539062 9.480469 5.992188 9.101562 5.160156 8.738281 C 4.324219 8.378906 3.6875 8.007812 3.25 7.625 C 2.328125 6.832031 1.910156 5.828125 2 4.621094 C 2.089844 3.484375 2.554688 2.539062 3.390625 1.785156 C 4.226562 1.035156 5.234375 0.671875 6.417969 0.695312 C 7.554688 0.722656 8.453125 1.140625 9.113281 1.941406 C 9.769531 2.746094 10.058594 3.757812 9.972656 4.972656 L 8.230469 4.972656 C 8.292969 4.078125 8.164062 3.402344 7.835938 2.941406 C 7.503906 2.480469 7 2.242188 6.324219 2.230469 C 5.625 2.214844 5.039062 2.425781 4.570312 2.863281 C 4.097656 3.300781 3.824219 3.875 3.746094 4.59375 C 3.679688 5.121094 3.800781 5.589844 4.113281 5.992188 C 4.421875 6.398438 4.960938 6.761719 5.734375 7.085938 C 6.507812 7.414062 7.113281 7.757812 7.554688 8.117188 C 8.519531 8.914062 8.949219 9.988281 8.839844 11.335938 C 8.746094 12.488281 8.28125 13.421875 7.449219 14.148438 C 6.621094 14.871094 5.578125 15.21875 4.324219 15.191406 C 3.144531 15.167969 2.199219 14.753906 1.488281 13.949219 C 0.777344 13.148438 0.453125 12.132812 0.519531 10.898438 L 2.261719 10.910156 C 2.191406 11.742188 2.347656 12.410156 2.726562 12.90625 C 3.109375 13.402344 3.671875 13.660156 4.421875 13.671875 C 5.125 13.695312 5.726562 13.5 6.21875 13.078125 C 6.714844 12.660156 7.003906 12.085938 7.097656 11.355469 Z M 14.769531 0.894531 L 12.316406 14.996094 L 10.585938 14.996094 L 13.035156 0.894531 Z M 19.632812 14.996094 L 15.429688 14.996094 L 17.871094 0.894531 L 21.660156 0.898438 C 22.796875 0.933594 23.644531 1.269531 24.203125 1.910156 C 24.761719 2.550781 24.992188 3.4375 24.902344 4.570312 C 24.789062 5.890625 24.019531 6.90625 22.597656 7.617188 C 23.113281 7.84375 23.5 8.246094 23.753906 8.828125 C 24.011719 9.40625 24.105469 10.082031 24.042969 10.851562 C 23.9375 12.125 23.488281 13.132812 22.691406 13.882812 C 21.890625 14.632812 20.875 15.003906 19.632812 14.996094 Z M 20.816406 8.410156 L 18.304688 8.398438 L 17.421875 13.476562 L 19.671875 13.496094 C 20.550781 13.484375 21.234375 13.140625 21.726562 12.472656 C 22.21875 11.804688 22.421875 10.972656 22.347656 9.980469 C 22.257812 8.984375 21.746094 8.460938 20.816406 8.410156 Z M 19.34375 2.421875 L 18.558594 6.90625 L 20.679688 6.929688 C 21.210938 6.914062 21.675781 6.765625 22.082031 6.476562 C 22.484375 6.191406 22.78125 5.792969 22.96875 5.285156 C 23.15625 4.777344 23.214844 4.257812 23.148438 3.722656 C 23.046875 2.898438 22.535156 2.472656 21.621094 2.433594 Z M 19.34375 2.421875 "/>
</g>
</svg>
