<?xml version="1.0" encoding="UTF-8"?>
<svg xmlns="http://www.w3.org/2000/svg" width="40pt" height="40pt" viewBox="0 0 40 40" version="1.1">
<defs>
<linearGradient id="linear0" gradientUnits="userSpaceOnUse" x1="116.90625" y1="61.8125" x2="116.90625" y2="154.07438" gradientTransform="matrix(0.232558,0,0,0.232558,0,0)">
<stop offset="0" style="stop-color:rgb(100%,100%,100%);stop-opacity:1;"/>
<stop offset="1" style="stop-color:rgb(100%,81.568627%,54.117647%);stop-opacity:1;"/>
</linearGradient>
<linearGradient id="linear1" gradientUnits="userSpaceOnUse" x1="86" y1="17.91756" x2="86" y2="155.02575" gradientTransform="matrix(0.232558,0,0,0.232558,0,0)">
<stop offset="0" style="stop-color:rgb(81.960784%,100%,87.45098%);stop-opacity:1;"/>
<stop offset="1" style="stop-color:rgb(100%,63.529412%,10.196078%);stop-opacity:1;"/>
</linearGradient>
</defs>
<g id="surface882239">
<path style=" stroke:none;fill-rule:nonzero;fill:url(#linear0);" d="M 29.671875 20 C 30.070312 19.476562 30.3125 18.832031 30.3125 18.125 C 30.3125 16.398438 28.914062 15 27.1875 15 C 25.460938 15 24.0625 16.398438 24.0625 18.125 C 24.0625 18.832031 24.304688 19.476562 24.703125 20 L 20 20 L 20 25 C 20.519531 24.605469 21.167969 24.375 21.875 24.375 C 23.601562 24.375 25 25.773438 25 27.5 C 25 29.226562 23.601562 30.625 21.875 30.625 C 21.167969 30.625 20.519531 30.394531 20 30 L 20 34.375 L 31.542969 34.375 C 33.105469 34.375 34.375 33.105469 34.375 31.542969 L 34.375 20 Z M 29.671875 20 "/>
<path style=" stroke:none;fill-rule:nonzero;fill:url(#linear1);" d="M 31.875 5 L 8.125 5 C 6.402344 5 5 6.402344 5 8.125 L 5 31.875 C 5 33.597656 6.402344 35 8.125 35 L 31.875 35 C 33.597656 35 35 33.597656 35 31.875 L 35 8.125 C 35 6.402344 33.597656 5 31.875 5 Z M 6.25 8.125 C 6.25 7.089844 7.089844 6.25 8.125 6.25 L 19.375 6.25 L 19.375 9.28125 C 18.976562 9.136719 18.554688 9.0625 18.125 9.0625 C 17 9.0625 15.941406 9.5625 15.226562 10.433594 C 14.507812 11.304688 14.226562 12.449219 14.449219 13.574219 C 14.730469 14.992188 15.875 16.15625 17.296875 16.46875 C 18.007812 16.628906 18.71875 16.582031 19.375 16.34375 L 19.375 19.375 L 14.042969 19.375 L 14.800781 20.375 C 15.136719 20.820312 15.3125 21.339844 15.3125 21.875 C 15.3125 22.625 14.976562 23.332031 14.398438 23.808594 C 13.808594 24.292969 13.0625 24.476562 12.292969 24.324219 C 11.355469 24.136719 10.582031 23.375 10.375 22.433594 C 10.210938 21.703125 10.371094 20.976562 10.824219 20.375 L 11.582031 19.375 L 6.25 19.375 Z M 19.375 33.75 L 8.125 33.75 C 7.089844 33.75 6.25 32.910156 6.25 31.875 L 6.25 20.625 L 9.28125 20.625 C 9.042969 21.28125 8.996094 21.992188 9.15625 22.703125 C 9.46875 24.125 10.632812 25.269531 12.050781 25.550781 C 12.300781 25.597656 12.554688 25.625 12.804688 25.625 C 13.671875 25.625 14.515625 25.328125 15.191406 24.773438 C 16.0625 24.058594 16.5625 23 16.5625 21.875 C 16.5625 21.445312 16.488281 21.023438 16.34375 20.625 L 19.375 20.625 L 19.375 25.957031 L 20.375 25.199219 C 20.976562 24.746094 21.703125 24.589844 22.433594 24.75 C 23.375 24.960938 24.136719 25.730469 24.324219 26.667969 C 24.476562 27.4375 24.292969 28.183594 23.808594 28.773438 C 22.988281 29.769531 21.441406 29.980469 20.375 29.175781 L 19.375 28.417969 Z M 33.75 31.875 C 33.75 32.910156 32.910156 33.75 31.875 33.75 L 20.625 33.75 L 20.625 30.71875 C 21.023438 30.863281 21.445312 30.9375 21.875 30.9375 C 23 30.9375 24.058594 30.4375 24.773438 29.566406 C 25.492188 28.695312 25.773438 27.550781 25.550781 26.425781 C 25.269531 25.007812 24.125 23.84375 22.703125 23.53125 C 21.992188 23.371094 21.28125 23.417969 20.625 23.65625 L 20.625 20.625 L 25.957031 20.625 L 25.199219 19.625 C 24.75 19.023438 24.589844 18.296875 24.75 17.566406 C 24.960938 16.625 25.730469 15.863281 26.667969 15.675781 C 27.4375 15.523438 28.183594 15.707031 28.773438 16.191406 C 29.355469 16.667969 29.6875 17.375 29.6875 18.125 C 29.6875 18.660156 29.511719 19.179688 29.175781 19.625 L 28.417969 20.625 L 33.75 20.625 Z M 30.71875 19.375 C 30.863281 18.976562 30.9375 18.554688 30.9375 18.125 C 30.9375 17 30.4375 15.941406 29.566406 15.226562 C 28.695312 14.507812 27.550781 14.226562 26.425781 14.449219 C 25.007812 14.730469 23.84375 15.875 23.53125 17.296875 C 23.371094 18.007812 23.417969 18.71875 23.65625 19.375 L 20.625 19.375 L 20.625 14.042969 L 19.625 14.800781 C 19.023438 15.253906 18.296875 15.410156 17.566406 15.25 C 16.625 15.039062 15.863281 14.269531 15.675781 13.332031 C 15.523438 12.5625 15.707031 11.816406 16.191406 11.226562 C 17.007812 10.230469 18.554688 10.019531 19.625 10.824219 L 20.625 11.582031 L 20.625 6.25 L 31.875 6.25 C 32.910156 6.25 33.75 7.089844 33.75 8.125 L 33.75 19.375 Z M 30.71875 19.375 "/>
<path style=" stroke:none;fill-rule:nonzero;fill:rgb(10.196078%,73.72549%,61.176471%);fill-opacity:1;" d="M 8.050781 11.996094 C 8.117188 11.453125 8.03125 10.996094 7.785156 10.625 C 7.539062 10.257812 7.03125 9.90625 6.257812 9.574219 C 5.488281 9.238281 4.898438 8.894531 4.492188 8.542969 C 3.636719 7.804688 3.25 6.878906 3.332031 5.761719 C 3.417969 4.707031 3.847656 3.832031 4.621094 3.136719 C 5.394531 2.441406 6.328125 2.101562 7.425781 2.125 C 8.476562 2.152344 9.308594 2.535156 9.917969 3.28125 C 10.527344 4.023438 10.792969 4.960938 10.71875 6.085938 L 9.101562 6.085938 C 9.160156 5.257812 9.039062 4.632812 8.734375 4.203125 C 8.429688 3.777344 7.964844 3.558594 7.335938 3.546875 C 6.6875 3.53125 6.148438 3.730469 5.710938 4.132812 C 5.273438 4.535156 5.019531 5.070312 4.949219 5.734375 C 4.890625 6.222656 5.003906 6.65625 5.289062 7.03125 C 5.574219 7.40625 6.078125 7.742188 6.792969 8.042969 C 7.507812 8.34375 8.066406 8.664062 8.476562 9 C 9.371094 9.734375 9.769531 10.726562 9.667969 11.976562 C 9.578125 13.042969 9.148438 13.910156 8.378906 14.582031 C 7.609375 15.25 6.644531 15.574219 5.488281 15.546875 C 4.390625 15.523438 3.515625 15.140625 2.859375 14.398438 C 2.203125 13.65625 1.902344 12.714844 1.960938 11.574219 L 3.574219 11.582031 C 3.511719 12.355469 3.652344 12.972656 4.007812 13.429688 C 4.359375 13.890625 4.882812 14.128906 5.578125 14.140625 C 6.230469 14.164062 6.78125 13.980469 7.238281 13.589844 C 7.699219 13.203125 7.96875 12.671875 8.050781 11.996094 Z M 15.15625 2.308594 L 12.886719 15.367188 L 11.28125 15.367188 L 13.550781 2.308594 Z M 19.660156 15.367188 L 15.769531 15.367188 L 18.027344 2.308594 L 21.535156 2.316406 C 22.589844 2.347656 23.375 2.65625 23.890625 3.25 C 24.40625 3.84375 24.625 4.664062 24.539062 5.714844 C 24.433594 6.933594 23.722656 7.875 22.40625 8.535156 C 22.882812 8.742188 23.242188 9.117188 23.476562 9.65625 C 23.714844 10.191406 23.804688 10.816406 23.742188 11.527344 C 23.644531 12.707031 23.230469 13.644531 22.492188 14.335938 C 21.75 15.03125 20.808594 15.375 19.660156 15.367188 Z M 20.753906 9.269531 L 18.429688 9.257812 L 17.613281 13.960938 L 19.695312 13.976562 C 20.511719 13.964844 21.144531 13.648438 21.597656 13.03125 C 22.050781 12.414062 22.242188 11.644531 22.171875 10.722656 C 22.089844 9.800781 21.617188 9.316406 20.753906 9.269531 Z M 19.390625 3.722656 L 18.664062 7.878906 L 20.628906 7.894531 C 21.121094 7.882812 21.550781 7.746094 21.925781 7.476562 C 22.300781 7.210938 22.574219 6.84375 22.746094 6.375 C 22.921875 5.90625 22.976562 5.421875 22.917969 4.925781 C 22.820312 4.167969 22.347656 3.769531 21.5 3.734375 Z M 19.390625 3.722656 "/>
</g>
</svg>
